# xmcd CD database file
#
# Track frame offsets:
#	150
#	10501
#	26466
#	43547
#	66485
#	80341
#	100540
#	111154
#	125356
#	151949
#	172396
#	187586
#	199679
#	210417
#	224989
#
# Disc length: 3093 seconds
#
# Revision: 0
# Processed by: cddbd v1.5.2PL0 Copyright (c) Steve Scherf et al.
# Submitted via: CDex 1.51
#
DISCID=c50c130f
DTITLE=Various Artist - Blue Note A Movie For Daddy (Scores to groove the screens)
DYEAR=2009
DGENRE=Jazz
TTITLE0=Jack Parnell and His Orchestra - Enter the dragon
TTITLE1=Willie Bobo - Kojak theme
TTITLE2=Bobby Womack - Across 110th street
TTITLE3=Grant Green - Down here on the ground (ummah remix)
TTITLE4=Wilton Felder - Theme from Bullitt
TTITLE5=Leroy Holmes - Theme from James Bond
TTITLE6=Jack Costanzo - Peter Gunn theme
TTITLE7=Jack Costanzo - La cumparsa - Harlem nocturne
TTITLE8=Candido - Tony's theme
TTITLE9=Earl Klugh - Keep your eye on the sparrow
TTITLE10=Grant Green - The final comedown
TTITLE11=Alan Morehouse and His Bond Street Brigade - Funky fever
TTITLE12=Billy May - Mission impossible (Labo Schrifin version)
TTITLE13=Paddy Kingsland - The earthman
TTITLE14=Alan Tew - The detectives
EXTD=YEAR: 2009
EXTT0=
EXTT1=
EXTT2=
EXTT3=
EXTT4=
EXTT5=
EXTT6=
EXTT7=
EXTT8=
EXTT9=
EXTT10=
EXTT11=
EXTT12=
EXTT13=
EXTT14=
PLAYORDER=
